<?xml version="1.0" encoding="us-ascii" standalone="no"?><svg xmlns="http://www.w3.org/2000/svg" xmlns:xlink="http://www.w3.org/1999/xlink" contentStyleType="text/css" height="1912px" preserveAspectRatio="none" style="width:853px;height:1912px;background:#FFFFFF;" version="1.1" viewBox="0 0 853 1912" width="853px" zoomAndPan="magnify"><defs/><g><text fill="#000000" font-family="sans-serif" font-size="14" font-weight="bold" lengthAdjust="spacing" textLength="92" x="373.5" y="25.1074">ZeCommerce</text><!--class Database--><g id="elem_Database"><rect codeLine="7" fill="#F1F1F1" height="178.3477" id="Database" rx="2.5" ry="2.5" style="stroke:#181818;stroke-width:0.5;" width="104" x="7" y="459.1211"/><ellipse cx="26.95" cy="475.1211" fill="#ADD1B2" rx="11" ry="11" style="stroke:#181818;stroke-width:1.0;"/><path d="M29.7156,470.9961 Q29.8719,470.7773 30.0594,470.668 Q30.2469,470.5586 30.4656,470.5586 Q30.8406,470.5586 31.075,470.8242 Q31.3094,471.0742 31.3094,471.6836 L31.3094,473.1367 Q31.3094,473.7461 31.075,474.0117 Q30.8406,474.2773 30.4656,474.2773 Q30.1219,474.2773 29.9188,474.0742 Q29.7156,473.8867 29.6063,473.3711 Q29.5594,473.0117 29.3719,472.8242 Q29.0438,472.4492 28.4344,472.2305 Q27.825,472.0117 27.2,472.0117 Q26.4344,472.0117 25.7938,472.3398 Q25.1688,472.668 24.6688,473.418 Q24.1844,474.168 24.1844,475.1992 L24.1844,476.293 Q24.1844,477.5273 25.075,478.3555 Q25.9656,479.168 27.5594,479.168 Q28.4969,479.168 29.1531,478.918 Q29.5438,478.7617 29.9656,478.3242 Q30.2313,478.0586 30.3719,477.9805 Q30.5281,477.9023 30.7313,477.9023 Q31.0594,477.9023 31.3094,478.168 Q31.575,478.418 31.575,478.7617 Q31.575,479.1055 31.2313,479.5117 Q30.7313,480.0898 29.9344,480.418 Q28.8563,480.8711 27.5594,480.8711 Q26.0438,480.8711 24.8406,480.2461 Q23.8563,479.7461 23.1688,478.6836 Q22.4813,477.6055 22.4813,476.3242 L22.4813,475.168 Q22.4813,473.8398 23.0906,472.6992 Q23.7156,471.543 24.8094,470.9336 Q25.9031,470.3086 27.1375,470.3086 Q27.8719,470.3086 28.5125,470.4805 Q29.1688,470.6367 29.7156,470.9961 Z " fill="#000000"/><text fill="#000000" font-family="sans-serif" font-size="14" lengthAdjust="spacing" textLength="61" x="42.05" y="480.918">Database</text><line style="stroke:#181818;stroke-width:0.5;" x1="8" x2="110" y1="491.1211" y2="491.1211"/><text fill="#000000" font-family="sans-serif" font-size="14" lengthAdjust="spacing" textLength="77" x="13" y="510.2285">PostgreSQL</text><text fill="#000000" font-family="sans-serif" font-size="14" lengthAdjust="spacing" textLength="50" x="13" y="528.8496">-- Users</text><text fill="#000000" font-family="sans-serif" font-size="14" lengthAdjust="spacing" textLength="70" x="13" y="547.4707">-- Products</text><text fill="#000000" font-family="sans-serif" font-size="14" lengthAdjust="spacing" textLength="58" x="13" y="566.0918">-- Orders</text><text fill="#000000" font-family="sans-serif" font-size="14" lengthAdjust="spacing" textLength="92" x="13" y="584.7129">-- Order_Items</text><text fill="#000000" font-family="sans-serif" font-size="14" lengthAdjust="spacing" textLength="76" x="13" y="603.334">-- Payments</text><text fill="#000000" font-family="sans-serif" font-size="14" lengthAdjust="spacing" textLength="83" x="13" y="621.9551">-- Categories</text><line style="stroke:#181818;stroke-width:0.5;" x1="8" x2="110" y1="629.4688" y2="629.4688"/></g><!--class Backend--><g id="elem_Backend"><rect codeLine="17" fill="#F1F1F1" height="103.8633" id="Backend" rx="2.5" ry="2.5" style="stroke:#181818;stroke-width:0.5;" width="87" x="337.5" y="555.1211"/><ellipse cx="352.5" cy="571.1211" fill="#ADD1B2" rx="11" ry="11" style="stroke:#181818;stroke-width:1.0;"/><path d="M355.2656,566.9961 Q355.4219,566.7773 355.6094,566.668 Q355.7969,566.5586 356.0156,566.5586 Q356.3906,566.5586 356.625,566.8242 Q356.8594,567.0742 356.8594,567.6836 L356.8594,569.1367 Q356.8594,569.7461 356.625,570.0117 Q356.3906,570.2773 356.0156,570.2773 Q355.6719,570.2773 355.4688,570.0742 Q355.2656,569.8867 355.1563,569.3711 Q355.1094,569.0117 354.9219,568.8242 Q354.5938,568.4492 353.9844,568.2305 Q353.375,568.0117 352.75,568.0117 Q351.9844,568.0117 351.3438,568.3398 Q350.7188,568.668 350.2188,569.418 Q349.7344,570.168 349.7344,571.1992 L349.7344,572.293 Q349.7344,573.5273 350.625,574.3555 Q351.5156,575.168 353.1094,575.168 Q354.0469,575.168 354.7031,574.918 Q355.0938,574.7617 355.5156,574.3242 Q355.7813,574.0586 355.9219,573.9805 Q356.0781,573.9023 356.2813,573.9023 Q356.6094,573.9023 356.8594,574.168 Q357.125,574.418 357.125,574.7617 Q357.125,575.1055 356.7813,575.5117 Q356.2813,576.0898 355.4844,576.418 Q354.4063,576.8711 353.1094,576.8711 Q351.5938,576.8711 350.3906,576.2461 Q349.4063,575.7461 348.7188,574.6836 Q348.0313,573.6055 348.0313,572.3242 L348.0313,571.168 Q348.0313,569.8398 348.6406,568.6992 Q349.2656,567.543 350.3594,566.9336 Q351.4531,566.3086 352.6875,566.3086 Q353.4219,566.3086 354.0625,566.4805 Q354.7188,566.6367 355.2656,566.9961 Z " fill="#000000"/><text fill="#000000" font-family="sans-serif" font-size="14" lengthAdjust="spacing" textLength="55" x="366.5" y="576.918">Backend</text><line style="stroke:#181818;stroke-width:0.5;" x1="338.5" x2="423.5" y1="587.1211" y2="587.1211"/><text fill="#000000" font-family="sans-serif" font-size="14" lengthAdjust="spacing" textLength="43" x="343.5" y="606.2285">NestJS</text><text fill="#000000" font-family="sans-serif" font-size="14" lengthAdjust="spacing" textLength="28" x="343.5" y="624.8496">JWT</text><text fill="#000000" font-family="sans-serif" font-size="14" lengthAdjust="spacing" textLength="64" x="343.5" y="643.4707">TypeORM</text><line style="stroke:#181818;stroke-width:0.5;" x1="338.5" x2="423.5" y1="650.9844" y2="650.9844"/></g><!--class UserService--><g id="elem_UserService"><rect codeLine="23" fill="#F1F1F1" height="66.6211" id="UserService" rx="2.5" ry="2.5" style="stroke:#181818;stroke-width:0.5;" width="108" x="715.5" y="46.6211"/><ellipse cx="730.5" cy="62.6211" fill="#ADD1B2" rx="11" ry="11" style="stroke:#181818;stroke-width:1.0;"/><path d="M733.2656,58.4961 Q733.4219,58.2773 733.6094,58.168 Q733.7969,58.0586 734.0156,58.0586 Q734.3906,58.0586 734.625,58.3242 Q734.8594,58.5742 734.8594,59.1836 L734.8594,60.6367 Q734.8594,61.2461 734.625,61.5117 Q734.3906,61.7773 734.0156,61.7773 Q733.6719,61.7773 733.4688,61.5742 Q733.2656,61.3867 733.1563,60.8711 Q733.1094,60.5117 732.9219,60.3242 Q732.5938,59.9492 731.9844,59.7305 Q731.375,59.5117 730.75,59.5117 Q729.9844,59.5117 729.3438,59.8398 Q728.7188,60.168 728.2188,60.918 Q727.7344,61.668 727.7344,62.6992 L727.7344,63.793 Q727.7344,65.0273 728.625,65.8555 Q729.5156,66.668 731.1094,66.668 Q732.0469,66.668 732.7031,66.418 Q733.0938,66.2617 733.5156,65.8242 Q733.7813,65.5586 733.9219,65.4805 Q734.0781,65.4023 734.2813,65.4023 Q734.6094,65.4023 734.8594,65.668 Q735.125,65.918 735.125,66.2617 Q735.125,66.6055 734.7813,67.0117 Q734.2813,67.5898 733.4844,67.918 Q732.4063,68.3711 731.1094,68.3711 Q729.5938,68.3711 728.3906,67.7461 Q727.4063,67.2461 726.7188,66.1836 Q726.0313,65.1055 726.0313,63.8242 L726.0313,62.668 Q726.0313,61.3398 726.6406,60.1992 Q727.2656,59.043 728.3594,58.4336 Q729.4531,57.8086 730.6875,57.8086 Q731.4219,57.8086 732.0625,57.9805 Q732.7188,58.1367 733.2656,58.4961 Z " fill="#000000"/><text fill="#000000" font-family="sans-serif" font-size="14" lengthAdjust="spacing" textLength="76" x="744.5" y="68.418">UserService</text><line style="stroke:#181818;stroke-width:0.5;" x1="716.5" x2="822.5" y1="78.6211" y2="78.6211"/><text fill="#000000" font-family="sans-serif" font-size="14" lengthAdjust="spacing" textLength="80" x="721.5" y="97.7285">User Service</text><line style="stroke:#181818;stroke-width:0.5;" x1="716.5" x2="822.5" y1="105.2422" y2="105.2422"/></g><!--class ProductService--><g id="elem_ProductService"><rect codeLine="27" fill="#F1F1F1" height="66.6211" id="ProductService" rx="2.5" ry="2.5" style="stroke:#181818;stroke-width:0.5;" width="128" x="705.5" y="153.6211"/><ellipse cx="720.5" cy="169.6211" fill="#ADD1B2" rx="11" ry="11" style="stroke:#181818;stroke-width:1.0;"/><path d="M723.2656,165.4961 Q723.4219,165.2773 723.6094,165.168 Q723.7969,165.0586 724.0156,165.0586 Q724.3906,165.0586 724.625,165.3242 Q724.8594,165.5742 724.8594,166.1836 L724.8594,167.6367 Q724.8594,168.2461 724.625,168.5117 Q724.3906,168.7773 724.0156,168.7773 Q723.6719,168.7773 723.4688,168.5742 Q723.2656,168.3867 723.1563,167.8711 Q723.1094,167.5117 722.9219,167.3242 Q722.5938,166.9492 721.9844,166.7305 Q721.375,166.5117 720.75,166.5117 Q719.9844,166.5117 719.3438,166.8398 Q718.7188,167.168 718.2188,167.918 Q717.7344,168.668 717.7344,169.6992 L717.7344,170.793 Q717.7344,172.0273 718.625,172.8555 Q719.5156,173.668 721.1094,173.668 Q722.0469,173.668 722.7031,173.418 Q723.0938,173.2617 723.5156,172.8242 Q723.7813,172.5586 723.9219,172.4805 Q724.0781,172.4023 724.2813,172.4023 Q724.6094,172.4023 724.8594,172.668 Q725.125,172.918 725.125,173.2617 Q725.125,173.6055 724.7813,174.0117 Q724.2813,174.5898 723.4844,174.918 Q722.4063,175.3711 721.1094,175.3711 Q719.5938,175.3711 718.3906,174.7461 Q717.4063,174.2461 716.7188,173.1836 Q716.0313,172.1055 716.0313,170.8242 L716.0313,169.668 Q716.0313,168.3398 716.6406,167.1992 Q717.2656,166.043 718.3594,165.4336 Q719.4531,164.8086 720.6875,164.8086 Q721.4219,164.8086 722.0625,164.9805 Q722.7188,165.1367 723.2656,165.4961 Z " fill="#000000"/><text fill="#000000" font-family="sans-serif" font-size="14" lengthAdjust="spacing" textLength="96" x="734.5" y="175.418">ProductService</text><line style="stroke:#181818;stroke-width:0.5;" x1="706.5" x2="832.5" y1="185.6211" y2="185.6211"/><text fill="#000000" font-family="sans-serif" font-size="14" lengthAdjust="spacing" textLength="100" x="711.5" y="204.7285">Product Service</text><line style="stroke:#181818;stroke-width:0.5;" x1="706.5" x2="832.5" y1="212.2422" y2="212.2422"/></g><!--class OrderService--><g id="elem_OrderService"><rect codeLine="31" fill="#F1F1F1" height="66.6211" id="OrderService" rx="2.5" ry="2.5" style="stroke:#181818;stroke-width:0.5;" width="116" x="711.5" y="265.6211"/><ellipse cx="726.5" cy="281.6211" fill="#ADD1B2" rx="11" ry="11" style="stroke:#181818;stroke-width:1.0;"/><path d="M729.2656,277.4961 Q729.4219,277.2773 729.6094,277.168 Q729.7969,277.0586 730.0156,277.0586 Q730.3906,277.0586 730.625,277.3242 Q730.8594,277.5742 730.8594,278.1836 L730.8594,279.6367 Q730.8594,280.2461 730.625,280.5117 Q730.3906,280.7773 730.0156,280.7773 Q729.6719,280.7773 729.4688,280.5742 Q729.2656,280.3867 729.1563,279.8711 Q729.1094,279.5117 728.9219,279.3242 Q728.5938,278.9492 727.9844,278.7305 Q727.375,278.5117 726.75,278.5117 Q725.9844,278.5117 725.3438,278.8398 Q724.7188,279.168 724.2188,279.918 Q723.7344,280.668 723.7344,281.6992 L723.7344,282.793 Q723.7344,284.0273 724.625,284.8555 Q725.5156,285.668 727.1094,285.668 Q728.0469,285.668 728.7031,285.418 Q729.0938,285.2617 729.5156,284.8242 Q729.7813,284.5586 729.9219,284.4805 Q730.0781,284.4023 730.2813,284.4023 Q730.6094,284.4023 730.8594,284.668 Q731.125,284.918 731.125,285.2617 Q731.125,285.6055 730.7813,286.0117 Q730.2813,286.5898 729.4844,286.918 Q728.4063,287.3711 727.1094,287.3711 Q725.5938,287.3711 724.3906,286.7461 Q723.4063,286.2461 722.7188,285.1836 Q722.0313,284.1055 722.0313,282.8242 L722.0313,281.668 Q722.0313,280.3398 722.6406,279.1992 Q723.2656,278.043 724.3594,277.4336 Q725.4531,276.8086 726.6875,276.8086 Q727.4219,276.8086 728.0625,276.9805 Q728.7188,277.1367 729.2656,277.4961 Z " fill="#000000"/><text fill="#000000" font-family="sans-serif" font-size="14" lengthAdjust="spacing" textLength="84" x="740.5" y="287.418">OrderService</text><line style="stroke:#181818;stroke-width:0.5;" x1="712.5" x2="826.5" y1="297.6211" y2="297.6211"/><text fill="#000000" font-family="sans-serif" font-size="14" lengthAdjust="spacing" textLength="88" x="717.5" y="316.7285">Order Service</text><line style="stroke:#181818;stroke-width:0.5;" x1="712.5" x2="826.5" y1="324.2422" y2="324.2422"/></g><!--class PaymentService--><g id="elem_PaymentService"><rect codeLine="35" fill="#F1F1F1" height="66.6211" id="PaymentService" rx="2.5" ry="2.5" style="stroke:#181818;stroke-width:0.5;" width="134" x="702.5" y="387.6211"/><ellipse cx="717.5" cy="403.6211" fill="#ADD1B2" rx="11" ry="11" style="stroke:#181818;stroke-width:1.0;"/><path d="M720.2656,399.4961 Q720.4219,399.2773 720.6094,399.168 Q720.7969,399.0586 721.0156,399.0586 Q721.3906,399.0586 721.625,399.3242 Q721.8594,399.5742 721.8594,400.1836 L721.8594,401.6367 Q721.8594,402.2461 721.625,402.5117 Q721.3906,402.7773 721.0156,402.7773 Q720.6719,402.7773 720.4688,402.5742 Q720.2656,402.3867 720.1563,401.8711 Q720.1094,401.5117 719.9219,401.3242 Q719.5938,400.9492 718.9844,400.7305 Q718.375,400.5117 717.75,400.5117 Q716.9844,400.5117 716.3438,400.8398 Q715.7188,401.168 715.2188,401.918 Q714.7344,402.668 714.7344,403.6992 L714.7344,404.793 Q714.7344,406.0273 715.625,406.8555 Q716.5156,407.668 718.1094,407.668 Q719.0469,407.668 719.7031,407.418 Q720.0938,407.2617 720.5156,406.8242 Q720.7813,406.5586 720.9219,406.4805 Q721.0781,406.4023 721.2813,406.4023 Q721.6094,406.4023 721.8594,406.668 Q722.125,406.918 722.125,407.2617 Q722.125,407.6055 721.7813,408.0117 Q721.2813,408.5898 720.4844,408.918 Q719.4063,409.3711 718.1094,409.3711 Q716.5938,409.3711 715.3906,408.7461 Q714.4063,408.2461 713.7188,407.1836 Q713.0313,406.1055 713.0313,404.8242 L713.0313,403.668 Q713.0313,402.3398 713.6406,401.1992 Q714.2656,400.043 715.3594,399.4336 Q716.4531,398.8086 717.6875,398.8086 Q718.4219,398.8086 719.0625,398.9805 Q719.7188,399.1367 720.2656,399.4961 Z " fill="#000000"/><text fill="#000000" font-family="sans-serif" font-size="14" lengthAdjust="spacing" textLength="102" x="731.5" y="409.418">PaymentService</text><line style="stroke:#181818;stroke-width:0.5;" x1="703.5" x2="835.5" y1="419.6211" y2="419.6211"/><text fill="#000000" font-family="sans-serif" font-size="14" lengthAdjust="spacing" textLength="106" x="708.5" y="438.7285">Payment Service</text><line style="stroke:#181818;stroke-width:0.5;" x1="703.5" x2="835.5" y1="446.2422" y2="446.2422"/></g><!--class CategoryService--><g id="elem_CategoryService"><rect codeLine="39" fill="#F1F1F1" height="66.6211" id="CategoryService" rx="2.5" ry="2.5" style="stroke:#181818;stroke-width:0.5;" width="137" x="701" y="759.6211"/><ellipse cx="716" cy="775.6211" fill="#ADD1B2" rx="11" ry="11" style="stroke:#181818;stroke-width:1.0;"/><path d="M718.7656,771.4961 Q718.9219,771.2773 719.1094,771.168 Q719.2969,771.0586 719.5156,771.0586 Q719.8906,771.0586 720.125,771.3242 Q720.3594,771.5742 720.3594,772.1836 L720.3594,773.6367 Q720.3594,774.2461 720.125,774.5117 Q719.8906,774.7773 719.5156,774.7773 Q719.1719,774.7773 718.9688,774.5742 Q718.7656,774.3867 718.6563,773.8711 Q718.6094,773.5117 718.4219,773.3242 Q718.0938,772.9492 717.4844,772.7305 Q716.875,772.5117 716.25,772.5117 Q715.4844,772.5117 714.8438,772.8398 Q714.2188,773.168 713.7188,773.918 Q713.2344,774.668 713.2344,775.6992 L713.2344,776.793 Q713.2344,778.0273 714.125,778.8555 Q715.0156,779.668 716.6094,779.668 Q717.5469,779.668 718.2031,779.418 Q718.5938,779.2617 719.0156,778.8242 Q719.2813,778.5586 719.4219,778.4805 Q719.5781,778.4023 719.7813,778.4023 Q720.1094,778.4023 720.3594,778.668 Q720.625,778.918 720.625,779.2617 Q720.625,779.6055 720.2813,780.0117 Q719.7813,780.5898 718.9844,780.918 Q717.9063,781.3711 716.6094,781.3711 Q715.0938,781.3711 713.8906,780.7461 Q712.9063,780.2461 712.2188,779.1836 Q711.5313,778.1055 711.5313,776.8242 L711.5313,775.668 Q711.5313,774.3398 712.1406,773.1992 Q712.7656,772.043 713.8594,771.4336 Q714.9531,770.8086 716.1875,770.8086 Q716.9219,770.8086 717.5625,770.9805 Q718.2188,771.1367 718.7656,771.4961 Z " fill="#000000"/><text fill="#000000" font-family="sans-serif" font-size="14" lengthAdjust="spacing" textLength="105" x="730" y="781.418">CategoryService</text><line style="stroke:#181818;stroke-width:0.5;" x1="702" x2="837" y1="791.6211" y2="791.6211"/><text fill="#000000" font-family="sans-serif" font-size="14" lengthAdjust="spacing" textLength="109" x="707" y="810.7285">Category Service</text><line style="stroke:#181818;stroke-width:0.5;" x1="702" x2="837" y1="818.2422" y2="818.2422"/></g><!--class AuthService--><g id="elem_AuthService"><rect codeLine="43" fill="#F1F1F1" height="66.6211" id="AuthService" rx="2.5" ry="2.5" style="stroke:#181818;stroke-width:0.5;" width="153" x="693" y="1005.6211"/><ellipse cx="728.25" cy="1021.6211" fill="#ADD1B2" rx="11" ry="11" style="stroke:#181818;stroke-width:1.0;"/><path d="M731.0156,1017.4961 Q731.1719,1017.2773 731.3594,1017.168 Q731.5469,1017.0586 731.7656,1017.0586 Q732.1406,1017.0586 732.375,1017.3242 Q732.6094,1017.5742 732.6094,1018.1836 L732.6094,1019.6367 Q732.6094,1020.2461 732.375,1020.5117 Q732.1406,1020.7773 731.7656,1020.7773 Q731.4219,1020.7773 731.2188,1020.5742 Q731.0156,1020.3867 730.9063,1019.8711 Q730.8594,1019.5117 730.6719,1019.3242 Q730.3438,1018.9492 729.7344,1018.7305 Q729.125,1018.5117 728.5,1018.5117 Q727.7344,1018.5117 727.0938,1018.8398 Q726.4688,1019.168 725.9688,1019.918 Q725.4844,1020.668 725.4844,1021.6992 L725.4844,1022.793 Q725.4844,1024.0273 726.375,1024.8555 Q727.2656,1025.668 728.8594,1025.668 Q729.7969,1025.668 730.4531,1025.418 Q730.8438,1025.2617 731.2656,1024.8242 Q731.5313,1024.5586 731.6719,1024.4805 Q731.8281,1024.4023 732.0313,1024.4023 Q732.3594,1024.4023 732.6094,1024.668 Q732.875,1024.918 732.875,1025.2617 Q732.875,1025.6055 732.5313,1026.0117 Q732.0313,1026.5898 731.2344,1026.918 Q730.1563,1027.3711 728.8594,1027.3711 Q727.3438,1027.3711 726.1406,1026.7461 Q725.1563,1026.2461 724.4688,1025.1836 Q723.7813,1024.1055 723.7813,1022.8242 L723.7813,1021.668 Q723.7813,1020.3398 724.3906,1019.1992 Q725.0156,1018.043 726.1094,1017.4336 Q727.2031,1016.8086 728.4375,1016.8086 Q729.1719,1016.8086 729.8125,1016.9805 Q730.4688,1017.1367 731.0156,1017.4961 Z " fill="#000000"/><text fill="#000000" font-family="sans-serif" font-size="14" lengthAdjust="spacing" textLength="76" x="746.75" y="1027.418">AuthService</text><line style="stroke:#181818;stroke-width:0.5;" x1="694" x2="845" y1="1037.6211" y2="1037.6211"/><text fill="#000000" font-family="sans-serif" font-size="14" lengthAdjust="spacing" textLength="141" x="699" y="1056.7285">Authentication Service</text><line style="stroke:#181818;stroke-width:0.5;" x1="694" x2="845" y1="1064.2422" y2="1064.2422"/></g><!--class AuthzService--><g id="elem_AuthzService"><rect codeLine="47" fill="#F1F1F1" height="66.6211" id="AuthzService" rx="2.5" ry="2.5" style="stroke:#181818;stroke-width:0.5;" width="145" x="697" y="640.6211"/><ellipse cx="725.95" cy="656.6211" fill="#ADD1B2" rx="11" ry="11" style="stroke:#181818;stroke-width:1.0;"/><path d="M728.7156,652.4961 Q728.8719,652.2773 729.0594,652.168 Q729.2469,652.0586 729.4656,652.0586 Q729.8406,652.0586 730.075,652.3242 Q730.3094,652.5742 730.3094,653.1836 L730.3094,654.6367 Q730.3094,655.2461 730.075,655.5117 Q729.8406,655.7773 729.4656,655.7773 Q729.1219,655.7773 728.9188,655.5742 Q728.7156,655.3867 728.6063,654.8711 Q728.5594,654.5117 728.3719,654.3242 Q728.0438,653.9492 727.4344,653.7305 Q726.825,653.5117 726.2,653.5117 Q725.4344,653.5117 724.7938,653.8398 Q724.1688,654.168 723.6688,654.918 Q723.1844,655.668 723.1844,656.6992 L723.1844,657.793 Q723.1844,659.0273 724.075,659.8555 Q724.9656,660.668 726.5594,660.668 Q727.4969,660.668 728.1531,660.418 Q728.5438,660.2617 728.9656,659.8242 Q729.2313,659.5586 729.3719,659.4805 Q729.5281,659.4023 729.7313,659.4023 Q730.0594,659.4023 730.3094,659.668 Q730.575,659.918 730.575,660.2617 Q730.575,660.6055 730.2313,661.0117 Q729.7313,661.5898 728.9344,661.918 Q727.8563,662.3711 726.5594,662.3711 Q725.0438,662.3711 723.8406,661.7461 Q722.8563,661.2461 722.1688,660.1836 Q721.4813,659.1055 721.4813,657.8242 L721.4813,656.668 Q721.4813,655.3398 722.0906,654.1992 Q722.7156,653.043 723.8094,652.4336 Q724.9031,651.8086 726.1375,651.8086 Q726.8719,651.8086 727.5125,651.9805 Q728.1688,652.1367 728.7156,652.4961 Z " fill="#000000"/><text fill="#000000" font-family="sans-serif" font-size="14" lengthAdjust="spacing" textLength="82" x="743.05" y="662.418">AuthzService</text><line style="stroke:#181818;stroke-width:0.5;" x1="698" x2="841" y1="672.6211" y2="672.6211"/><text fill="#000000" font-family="sans-serif" font-size="14" lengthAdjust="spacing" textLength="133" x="703" y="691.7285">Authorization Service</text><line style="stroke:#181818;stroke-width:0.5;" x1="698" x2="841" y1="699.2422" y2="699.2422"/></g><!--class CacheService--><g id="elem_CacheService"><rect codeLine="51" fill="#F1F1F1" height="66.6211" id="CacheService" rx="2.5" ry="2.5" style="stroke:#181818;stroke-width:0.5;" width="120" x="709.5" y="530.6211"/><ellipse cx="724.5" cy="546.6211" fill="#ADD1B2" rx="11" ry="11" style="stroke:#181818;stroke-width:1.0;"/><path d="M727.2656,542.4961 Q727.4219,542.2773 727.6094,542.168 Q727.7969,542.0586 728.0156,542.0586 Q728.3906,542.0586 728.625,542.3242 Q728.8594,542.5742 728.8594,543.1836 L728.8594,544.6367 Q728.8594,545.2461 728.625,545.5117 Q728.3906,545.7773 728.0156,545.7773 Q727.6719,545.7773 727.4688,545.5742 Q727.2656,545.3867 727.1563,544.8711 Q727.1094,544.5117 726.9219,544.3242 Q726.5938,543.9492 725.9844,543.7305 Q725.375,543.5117 724.75,543.5117 Q723.9844,543.5117 723.3438,543.8398 Q722.7188,544.168 722.2188,544.918 Q721.7344,545.668 721.7344,546.6992 L721.7344,547.793 Q721.7344,549.0273 722.625,549.8555 Q723.5156,550.668 725.1094,550.668 Q726.0469,550.668 726.7031,550.418 Q727.0938,550.2617 727.5156,549.8242 Q727.7813,549.5586 727.9219,549.4805 Q728.0781,549.4023 728.2813,549.4023 Q728.6094,549.4023 728.8594,549.668 Q729.125,549.918 729.125,550.2617 Q729.125,550.6055 728.7813,551.0117 Q728.2813,551.5898 727.4844,551.918 Q726.4063,552.3711 725.1094,552.3711 Q723.5938,552.3711 722.3906,551.7461 Q721.4063,551.2461 720.7188,550.1836 Q720.0313,549.1055 720.0313,547.8242 L720.0313,546.668 Q720.0313,545.3398 720.6406,544.1992 Q721.2656,543.043 722.3594,542.4336 Q723.4531,541.8086 724.6875,541.8086 Q725.4219,541.8086 726.0625,541.9805 Q726.7188,542.1367 727.2656,542.4961 Z " fill="#000000"/><text fill="#000000" font-family="sans-serif" font-size="14" lengthAdjust="spacing" textLength="88" x="738.5" y="552.418">CacheService</text><line style="stroke:#181818;stroke-width:0.5;" x1="710.5" x2="828.5" y1="562.6211" y2="562.6211"/><text fill="#000000" font-family="sans-serif" font-size="14" lengthAdjust="spacing" textLength="103" x="715.5" y="581.7285">Caching Service</text><line style="stroke:#181818;stroke-width:0.5;" x1="710.5" x2="828.5" y1="589.2422" y2="589.2422"/></g><!--class LoggingService--><g id="elem_LoggingService"><rect codeLine="55" fill="#F1F1F1" height="66.6211" id="LoggingService" rx="2.5" ry="2.5" style="stroke:#181818;stroke-width:0.5;" width="130" x="704.5" y="895.6211"/><ellipse cx="719.5" cy="911.6211" fill="#ADD1B2" rx="11" ry="11" style="stroke:#181818;stroke-width:1.0;"/><path d="M722.2656,907.4961 Q722.4219,907.2773 722.6094,907.168 Q722.7969,907.0586 723.0156,907.0586 Q723.3906,907.0586 723.625,907.3242 Q723.8594,907.5742 723.8594,908.1836 L723.8594,909.6367 Q723.8594,910.2461 723.625,910.5117 Q723.3906,910.7773 723.0156,910.7773 Q722.6719,910.7773 722.4688,910.5742 Q722.2656,910.3867 722.1563,909.8711 Q722.1094,909.5117 721.9219,909.3242 Q721.5938,908.9492 720.9844,908.7305 Q720.375,908.5117 719.75,908.5117 Q718.9844,908.5117 718.3438,908.8398 Q717.7188,909.168 717.2188,909.918 Q716.7344,910.668 716.7344,911.6992 L716.7344,912.793 Q716.7344,914.0273 717.625,914.8555 Q718.5156,915.668 720.1094,915.668 Q721.0469,915.668 721.7031,915.418 Q722.0938,915.2617 722.5156,914.8242 Q722.7813,914.5586 722.9219,914.4805 Q723.0781,914.4023 723.2813,914.4023 Q723.6094,914.4023 723.8594,914.668 Q724.125,914.918 724.125,915.2617 Q724.125,915.6055 723.7813,916.0117 Q723.2813,916.5898 722.4844,916.918 Q721.4063,917.3711 720.1094,917.3711 Q718.5938,917.3711 717.3906,916.7461 Q716.4063,916.2461 715.7188,915.1836 Q715.0313,914.1055 715.0313,912.8242 L715.0313,911.668 Q715.0313,910.3398 715.6406,909.1992 Q716.2656,908.043 717.3594,907.4336 Q718.4531,906.8086 719.6875,906.8086 Q720.4219,906.8086 721.0625,906.9805 Q721.7188,907.1367 722.2656,907.4961 Z " fill="#000000"/><text fill="#000000" font-family="sans-serif" font-size="14" lengthAdjust="spacing" textLength="98" x="733.5" y="917.418">LoggingService</text><line style="stroke:#181818;stroke-width:0.5;" x1="705.5" x2="833.5" y1="927.6211" y2="927.6211"/><text fill="#000000" font-family="sans-serif" font-size="14" lengthAdjust="spacing" textLength="102" x="710.5" y="946.7285">Logging Service</text><line style="stroke:#181818;stroke-width:0.5;" x1="705.5" x2="833.5" y1="954.2422" y2="954.2422"/></g><!--class Frontend--><g id="elem_Frontend"><rect codeLine="59" fill="#F1F1F1" height="252.832" id="Frontend" rx="2.5" ry="2.5" style="stroke:#181818;stroke-width:0.5;" width="157" x="302.5" y="1113.6211"/><ellipse cx="347.75" cy="1129.6211" fill="#ADD1B2" rx="11" ry="11" style="stroke:#181818;stroke-width:1.0;"/><path d="M350.5156,1125.4961 Q350.6719,1125.2773 350.8594,1125.168 Q351.0469,1125.0586 351.2656,1125.0586 Q351.6406,1125.0586 351.875,1125.3242 Q352.1094,1125.5742 352.1094,1126.1836 L352.1094,1127.6367 Q352.1094,1128.2461 351.875,1128.5117 Q351.6406,1128.7773 351.2656,1128.7773 Q350.9219,1128.7773 350.7188,1128.5742 Q350.5156,1128.3867 350.4063,1127.8711 Q350.3594,1127.5117 350.1719,1127.3242 Q349.8438,1126.9492 349.2344,1126.7305 Q348.625,1126.5117 348,1126.5117 Q347.2344,1126.5117 346.5938,1126.8398 Q345.9688,1127.168 345.4688,1127.918 Q344.9844,1128.668 344.9844,1129.6992 L344.9844,1130.793 Q344.9844,1132.0273 345.875,1132.8555 Q346.7656,1133.668 348.3594,1133.668 Q349.2969,1133.668 349.9531,1133.418 Q350.3438,1133.2617 350.7656,1132.8242 Q351.0313,1132.5586 351.1719,1132.4805 Q351.3281,1132.4023 351.5313,1132.4023 Q351.8594,1132.4023 352.1094,1132.668 Q352.375,1132.918 352.375,1133.2617 Q352.375,1133.6055 352.0313,1134.0117 Q351.5313,1134.5898 350.7344,1134.918 Q349.6563,1135.3711 348.3594,1135.3711 Q346.8438,1135.3711 345.6406,1134.7461 Q344.6563,1134.2461 343.9688,1133.1836 Q343.2813,1132.1055 343.2813,1130.8242 L343.2813,1129.668 Q343.2813,1128.3398 343.8906,1127.1992 Q344.5156,1126.043 345.6094,1125.4336 Q346.7031,1124.8086 347.9375,1124.8086 Q348.6719,1124.8086 349.3125,1124.9805 Q349.9688,1125.1367 350.5156,1125.4961 Z " fill="#000000"/><text fill="#000000" font-family="sans-serif" font-size="14" lengthAdjust="spacing" textLength="58" x="368.25" y="1135.418">Frontend</text><line style="stroke:#181818;stroke-width:0.5;" x1="303.5" x2="458.5" y1="1145.6211" y2="1145.6211"/><text fill="#000000" font-family="sans-serif" font-size="14" lengthAdjust="spacing" textLength="42" x="308.5" y="1164.7285">NextJS</text><text fill="#000000" font-family="sans-serif" font-size="14" lengthAdjust="spacing" textLength="37" x="308.5" y="1183.3496">React</text><text fill="#000000" font-family="sans-serif" font-size="14" lengthAdjust="spacing" textLength="83" x="308.5" y="1201.9707">Tailwind CSS</text><text fill="#000000" font-family="sans-serif" font-size="14" lengthAdjust="spacing" textLength="33" x="308.5" y="1220.5918">Axios</text><text fill="#000000" font-family="sans-serif" font-size="14" lengthAdjust="spacing" textLength="87" x="308.5" y="1239.2129">-- Home Page</text><text fill="#000000" font-family="sans-serif" font-size="14" lengthAdjust="spacing" textLength="145" x="308.5" y="1257.834">-- Product Listing Page</text><text fill="#000000" font-family="sans-serif" font-size="14" lengthAdjust="spacing" textLength="140" x="308.5" y="1276.4551">-- Product Detail Page</text><text fill="#000000" font-family="sans-serif" font-size="14" lengthAdjust="spacing" textLength="78" x="308.5" y="1295.0762">-- Cart Page</text><text fill="#000000" font-family="sans-serif" font-size="14" lengthAdjust="spacing" textLength="111" x="308.5" y="1313.6973">-- Checkout Page</text><text fill="#000000" font-family="sans-serif" font-size="14" lengthAdjust="spacing" textLength="124" x="308.5" y="1332.3184">-- User Profile Page</text><text fill="#000000" font-family="sans-serif" font-size="14" lengthAdjust="spacing" textLength="135" x="308.5" y="1350.9395">-- Order History Page</text><line style="stroke:#181818;stroke-width:0.5;" x1="303.5" x2="458.5" y1="1358.4531" y2="1358.4531"/></g><!--class MobileApp--><g id="elem_MobileApp"><rect codeLine="73" fill="#F1F1F1" height="252.832" id="MobileApp" rx="2.5" ry="2.5" style="stroke:#181818;stroke-width:0.5;" width="169" x="296.5" y="1401.6211"/><ellipse cx="343.75" cy="1417.6211" fill="#ADD1B2" rx="11" ry="11" style="stroke:#181818;stroke-width:1.0;"/><path d="M346.5156,1413.4961 Q346.6719,1413.2773 346.8594,1413.168 Q347.0469,1413.0586 347.2656,1413.0586 Q347.6406,1413.0586 347.875,1413.3242 Q348.1094,1413.5742 348.1094,1414.1836 L348.1094,1415.6367 Q348.1094,1416.2461 347.875,1416.5117 Q347.6406,1416.7773 347.2656,1416.7773 Q346.9219,1416.7773 346.7188,1416.5742 Q346.5156,1416.3867 346.4063,1415.8711 Q346.3594,1415.5117 346.1719,1415.3242 Q345.8438,1414.9492 345.2344,1414.7305 Q344.625,1414.5117 344,1414.5117 Q343.2344,1414.5117 342.5938,1414.8398 Q341.9688,1415.168 341.4688,1415.918 Q340.9844,1416.668 340.9844,1417.6992 L340.9844,1418.793 Q340.9844,1420.0273 341.875,1420.8555 Q342.7656,1421.668 344.3594,1421.668 Q345.2969,1421.668 345.9531,1421.418 Q346.3438,1421.2617 346.7656,1420.8242 Q347.0313,1420.5586 347.1719,1420.4805 Q347.3281,1420.4023 347.5313,1420.4023 Q347.8594,1420.4023 348.1094,1420.668 Q348.375,1420.918 348.375,1421.2617 Q348.375,1421.6055 348.0313,1422.0117 Q347.5313,1422.5898 346.7344,1422.918 Q345.6563,1423.3711 344.3594,1423.3711 Q342.8438,1423.3711 341.6406,1422.7461 Q340.6563,1422.2461 339.9688,1421.1836 Q339.2813,1420.1055 339.2813,1418.8242 L339.2813,1417.668 Q339.2813,1416.3398 339.8906,1415.1992 Q340.5156,1414.043 341.6094,1413.4336 Q342.7031,1412.8086 343.9375,1412.8086 Q344.6719,1412.8086 345.3125,1412.9805 Q345.9688,1413.1367 346.5156,1413.4961 Z " fill="#000000"/><text fill="#000000" font-family="sans-serif" font-size="14" lengthAdjust="spacing" textLength="66" x="364.25" y="1423.418">MobileApp</text><line style="stroke:#181818;stroke-width:0.5;" x1="297.5" x2="464.5" y1="1433.6211" y2="1433.6211"/><text fill="#000000" font-family="sans-serif" font-size="14" lengthAdjust="spacing" textLength="41" x="302.5" y="1452.7285">Flutter</text><text fill="#000000" font-family="sans-serif" font-size="14" lengthAdjust="spacing" textLength="27" x="302.5" y="1471.3496">Dart</text><text fill="#000000" font-family="sans-serif" font-size="14" lengthAdjust="spacing" textLength="53" x="302.5" y="1489.9707">Provider</text><text fill="#000000" font-family="sans-serif" font-size="14" lengthAdjust="spacing" textLength="36" x="302.5" y="1508.5918">HTTP</text><text fill="#000000" font-family="sans-serif" font-size="14" lengthAdjust="spacing" textLength="99" x="302.5" y="1527.2129">-- Home Screen</text><text fill="#000000" font-family="sans-serif" font-size="14" lengthAdjust="spacing" textLength="157" x="302.5" y="1545.834">-- Product Listing Screen</text><text fill="#000000" font-family="sans-serif" font-size="14" lengthAdjust="spacing" textLength="152" x="302.5" y="1564.4551">-- Product Detail Screen</text><text fill="#000000" font-family="sans-serif" font-size="14" lengthAdjust="spacing" textLength="90" x="302.5" y="1583.0762">-- Cart Screen</text><text fill="#000000" font-family="sans-serif" font-size="14" lengthAdjust="spacing" textLength="123" x="302.5" y="1601.6973">-- Checkout Screen</text><text fill="#000000" font-family="sans-serif" font-size="14" lengthAdjust="spacing" textLength="136" x="302.5" y="1620.3184">-- User Profile Screen</text><text fill="#000000" font-family="sans-serif" font-size="14" lengthAdjust="spacing" textLength="147" x="302.5" y="1638.9395">-- Order History Screen</text><line style="stroke:#181818;stroke-width:0.5;" x1="297.5" x2="464.5" y1="1646.4531" y2="1646.4531"/></g><!--class ProxyServer--><g id="elem_ProxyServer"><rect codeLine="87" fill="#F1F1F1" height="66.6211" id="ProxyServer" rx="2.5" ry="2.5" style="stroke:#181818;stroke-width:0.5;" width="109" x="715" y="1206.6211"/><ellipse cx="730" cy="1222.6211" fill="#ADD1B2" rx="11" ry="11" style="stroke:#181818;stroke-width:1.0;"/><path d="M732.7656,1218.4961 Q732.9219,1218.2773 733.1094,1218.168 Q733.2969,1218.0586 733.5156,1218.0586 Q733.8906,1218.0586 734.125,1218.3242 Q734.3594,1218.5742 734.3594,1219.1836 L734.3594,1220.6367 Q734.3594,1221.2461 734.125,1221.5117 Q733.8906,1221.7773 733.5156,1221.7773 Q733.1719,1221.7773 732.9688,1221.5742 Q732.7656,1221.3867 732.6563,1220.8711 Q732.6094,1220.5117 732.4219,1220.3242 Q732.0938,1219.9492 731.4844,1219.7305 Q730.875,1219.5117 730.25,1219.5117 Q729.4844,1219.5117 728.8438,1219.8398 Q728.2188,1220.168 727.7188,1220.918 Q727.2344,1221.668 727.2344,1222.6992 L727.2344,1223.793 Q727.2344,1225.0273 728.125,1225.8555 Q729.0156,1226.668 730.6094,1226.668 Q731.5469,1226.668 732.2031,1226.418 Q732.5938,1226.2617 733.0156,1225.8242 Q733.2813,1225.5586 733.4219,1225.4805 Q733.5781,1225.4023 733.7813,1225.4023 Q734.1094,1225.4023 734.3594,1225.668 Q734.625,1225.918 734.625,1226.2617 Q734.625,1226.6055 734.2813,1227.0117 Q733.7813,1227.5898 732.9844,1227.918 Q731.9063,1228.3711 730.6094,1228.3711 Q729.0938,1228.3711 727.8906,1227.7461 Q726.9063,1227.2461 726.2188,1226.1836 Q725.5313,1225.1055 725.5313,1223.8242 L725.5313,1222.668 Q725.5313,1221.3398 726.1406,1220.1992 Q726.7656,1219.043 727.8594,1218.4336 Q728.9531,1217.8086 730.1875,1217.8086 Q730.9219,1217.8086 731.5625,1217.9805 Q732.2188,1218.1367 732.7656,1218.4961 Z " fill="#000000"/><text fill="#000000" font-family="sans-serif" font-size="14" lengthAdjust="spacing" textLength="77" x="744" y="1228.418">ProxyServer</text><line style="stroke:#181818;stroke-width:0.5;" x1="716" x2="823" y1="1238.6211" y2="1238.6211"/><text fill="#000000" font-family="sans-serif" font-size="14" lengthAdjust="spacing" textLength="34" x="721" y="1257.7285">Nginx</text><line style="stroke:#181818;stroke-width:0.5;" x1="716" x2="823" y1="1265.2422" y2="1265.2422"/></g><!--class AdminPanel--><g id="elem_AdminPanel"><rect codeLine="91" fill="#F1F1F1" height="215.5898" id="AdminPanel" rx="2.5" ry="2.5" style="stroke:#181818;stroke-width:0.5;" width="207" x="277.5" y="1690.1211"/><ellipse cx="339.25" cy="1706.1211" fill="#ADD1B2" rx="11" ry="11" style="stroke:#181818;stroke-width:1.0;"/><path d="M342.0156,1701.9961 Q342.1719,1701.7773 342.3594,1701.668 Q342.5469,1701.5586 342.7656,1701.5586 Q343.1406,1701.5586 343.375,1701.8242 Q343.6094,1702.0742 343.6094,1702.6836 L343.6094,1704.1367 Q343.6094,1704.7461 343.375,1705.0117 Q343.1406,1705.2773 342.7656,1705.2773 Q342.4219,1705.2773 342.2188,1705.0742 Q342.0156,1704.8867 341.9063,1704.3711 Q341.8594,1704.0117 341.6719,1703.8242 Q341.3438,1703.4492 340.7344,1703.2305 Q340.125,1703.0117 339.5,1703.0117 Q338.7344,1703.0117 338.0938,1703.3398 Q337.4688,1703.668 336.9688,1704.418 Q336.4844,1705.168 336.4844,1706.1992 L336.4844,1707.293 Q336.4844,1708.5273 337.375,1709.3555 Q338.2656,1710.168 339.8594,1710.168 Q340.7969,1710.168 341.4531,1709.918 Q341.8438,1709.7617 342.2656,1709.3242 Q342.5313,1709.0586 342.6719,1708.9805 Q342.8281,1708.9023 343.0313,1708.9023 Q343.3594,1708.9023 343.6094,1709.168 Q343.875,1709.418 343.875,1709.7617 Q343.875,1710.1055 343.5313,1710.5117 Q343.0313,1711.0898 342.2344,1711.418 Q341.1563,1711.8711 339.8594,1711.8711 Q338.3438,1711.8711 337.1406,1711.2461 Q336.1563,1710.7461 335.4688,1709.6836 Q334.7813,1708.6055 334.7813,1707.3242 L334.7813,1706.168 Q334.7813,1704.8398 335.3906,1703.6992 Q336.0156,1702.543 337.1094,1701.9336 Q338.2031,1701.3086 339.4375,1701.3086 Q340.1719,1701.3086 340.8125,1701.4805 Q341.4688,1701.6367 342.0156,1701.9961 Z " fill="#000000"/><text fill="#000000" font-family="sans-serif" font-size="14" lengthAdjust="spacing" textLength="75" x="359.75" y="1711.918">AdminPanel</text><line style="stroke:#181818;stroke-width:0.5;" x1="278.5" x2="483.5" y1="1722.1211" y2="1722.1211"/><text fill="#000000" font-family="sans-serif" font-size="14" lengthAdjust="spacing" textLength="42" x="283.5" y="1741.2285">NextJS</text><text fill="#000000" font-family="sans-serif" font-size="14" lengthAdjust="spacing" textLength="37" x="283.5" y="1759.8496">React</text><text fill="#000000" font-family="sans-serif" font-size="14" lengthAdjust="spacing" textLength="83" x="283.5" y="1778.4707">Tailwind CSS</text><text fill="#000000" font-family="sans-serif" font-size="14" lengthAdjust="spacing" textLength="33" x="283.5" y="1797.0918">Axios</text><text fill="#000000" font-family="sans-serif" font-size="14" lengthAdjust="spacing" textLength="127" x="283.5" y="1815.7129">-- Admin Dashboard</text><text fill="#000000" font-family="sans-serif" font-size="14" lengthAdjust="spacing" textLength="186" x="283.5" y="1834.334">-- Product Management Page</text><text fill="#000000" font-family="sans-serif" font-size="14" lengthAdjust="spacing" textLength="174" x="283.5" y="1852.9551">-- Order Management Page</text><text fill="#000000" font-family="sans-serif" font-size="14" lengthAdjust="spacing" textLength="166" x="283.5" y="1871.5762">-- User Management Page</text><text fill="#000000" font-family="sans-serif" font-size="14" lengthAdjust="spacing" textLength="195" x="283.5" y="1890.1973">-- Category Management Page</text><line style="stroke:#181818;stroke-width:0.5;" x1="278.5" x2="483.5" y1="1897.7109" y2="1897.7109"/></g><!--class User--><g id="elem_User"><rect fill="#F1F1F1" height="48" id="User" rx="2.5" ry="2.5" style="stroke:#181818;stroke-width:0.5;" width="61" x="739" y="1404.1211"/><ellipse cx="754" cy="1420.1211" fill="#ADD1B2" rx="11" ry="11" style="stroke:#181818;stroke-width:1.0;"/><path d="M756.7656,1415.9961 Q756.9219,1415.7773 757.1094,1415.668 Q757.2969,1415.5586 757.5156,1415.5586 Q757.8906,1415.5586 758.125,1415.8242 Q758.3594,1416.0742 758.3594,1416.6836 L758.3594,1418.1367 Q758.3594,1418.7461 758.125,1419.0117 Q757.8906,1419.2773 757.5156,1419.2773 Q757.1719,1419.2773 756.9688,1419.0742 Q756.7656,1418.8867 756.6563,1418.3711 Q756.6094,1418.0117 756.4219,1417.8242 Q756.0938,1417.4492 755.4844,1417.2305 Q754.875,1417.0117 754.25,1417.0117 Q753.4844,1417.0117 752.8438,1417.3398 Q752.2188,1417.668 751.7188,1418.418 Q751.2344,1419.168 751.2344,1420.1992 L751.2344,1421.293 Q751.2344,1422.5273 752.125,1423.3555 Q753.0156,1424.168 754.6094,1424.168 Q755.5469,1424.168 756.2031,1423.918 Q756.5938,1423.7617 757.0156,1423.3242 Q757.2813,1423.0586 757.4219,1422.9805 Q757.5781,1422.9023 757.7813,1422.9023 Q758.1094,1422.9023 758.3594,1423.168 Q758.625,1423.418 758.625,1423.7617 Q758.625,1424.1055 758.2813,1424.5117 Q757.7813,1425.0898 756.9844,1425.418 Q755.9063,1425.8711 754.6094,1425.8711 Q753.0938,1425.8711 751.8906,1425.2461 Q750.9063,1424.7461 750.2188,1423.6836 Q749.5313,1422.6055 749.5313,1421.3242 L749.5313,1420.168 Q749.5313,1418.8398 750.1406,1417.6992 Q750.7656,1416.543 751.8594,1415.9336 Q752.9531,1415.3086 754.1875,1415.3086 Q754.9219,1415.3086 755.5625,1415.4805 Q756.2188,1415.6367 756.7656,1415.9961 Z " fill="#000000"/><text fill="#000000" font-family="sans-serif" font-size="14" lengthAdjust="spacing" textLength="29" x="768" y="1425.918">User</text><line style="stroke:#181818;stroke-width:0.5;" x1="740" x2="799" y1="1436.1211" y2="1436.1211"/><line style="stroke:#181818;stroke-width:0.5;" x1="740" x2="799" y1="1444.1211" y2="1444.1211"/></g><!--class Admin--><g id="elem_Admin"><rect fill="#F1F1F1" height="48" id="Admin" rx="2.5" ry="2.5" style="stroke:#181818;stroke-width:0.5;" width="71" x="734" y="1774.1211"/><ellipse cx="749" cy="1790.1211" fill="#ADD1B2" rx="11" ry="11" style="stroke:#181818;stroke-width:1.0;"/><path d="M751.7656,1785.9961 Q751.9219,1785.7773 752.1094,1785.668 Q752.2969,1785.5586 752.5156,1785.5586 Q752.8906,1785.5586 753.125,1785.8242 Q753.3594,1786.0742 753.3594,1786.6836 L753.3594,1788.1367 Q753.3594,1788.7461 753.125,1789.0117 Q752.8906,1789.2773 752.5156,1789.2773 Q752.1719,1789.2773 751.9688,1789.0742 Q751.7656,1788.8867 751.6563,1788.3711 Q751.6094,1788.0117 751.4219,1787.8242 Q751.0938,1787.4492 750.4844,1787.2305 Q749.875,1787.0117 749.25,1787.0117 Q748.4844,1787.0117 747.8438,1787.3398 Q747.2188,1787.668 746.7188,1788.418 Q746.2344,1789.168 746.2344,1790.1992 L746.2344,1791.293 Q746.2344,1792.5273 747.125,1793.3555 Q748.0156,1794.168 749.6094,1794.168 Q750.5469,1794.168 751.2031,1793.918 Q751.5938,1793.7617 752.0156,1793.3242 Q752.2813,1793.0586 752.4219,1792.9805 Q752.5781,1792.9023 752.7813,1792.9023 Q753.1094,1792.9023 753.3594,1793.168 Q753.625,1793.418 753.625,1793.7617 Q753.625,1794.1055 753.2813,1794.5117 Q752.7813,1795.0898 751.9844,1795.418 Q750.9063,1795.8711 749.6094,1795.8711 Q748.0938,1795.8711 746.8906,1795.2461 Q745.9063,1794.7461 745.2188,1793.6836 Q744.5313,1792.6055 744.5313,1791.3242 L744.5313,1790.168 Q744.5313,1788.8398 745.1406,1787.6992 Q745.7656,1786.543 746.8594,1785.9336 Q747.9531,1785.3086 749.1875,1785.3086 Q749.9219,1785.3086 750.5625,1785.4805 Q751.2188,1785.6367 751.7656,1785.9961 Z " fill="#000000"/><text fill="#000000" font-family="sans-serif" font-size="14" lengthAdjust="spacing" textLength="39" x="763" y="1795.918">Admin</text><line style="stroke:#181818;stroke-width:0.5;" x1="735" x2="804" y1="1806.1211" y2="1806.1211"/><line style="stroke:#181818;stroke-width:0.5;" x1="735" x2="804" y1="1814.1211" y2="1814.1211"/></g><!--link Database to Backend--><g id="link_Database_Backend"><path codeLine="103" d="M111.13,594.9011 C120.49,601.1411 130.6,606.6011 141,610.1211 C206.63,632.3611 282.4243,625.3032 331.3043,617.0232 " fill="none" id="Database-to-Backend" style="stroke:#181818;stroke-width:1.0;"/><polygon fill="#181818" points="337.22,616.0211,327.6784,613.5804,332.2902,616.8562,329.0145,621.468,337.22,616.0211" style="stroke:#181818;stroke-width:1.0;"/><text fill="#000000" font-family="sans-serif" font-size="13" lengthAdjust="spacing" textLength="70" x="158.5" y="606.1494">Connects to</text></g><!--link Backend to Database--><g id="link_Backend_Database"><path codeLine="114" d="M337.31,599.2511 C278.77,588.4611 179.6005,570.1691 116.9605,558.6191 " fill="none" id="Backend-to-Database" style="stroke:#181818;stroke-width:1.0;"/><polygon fill="#181818" points="111.06,557.5311,119.1855,563.0968,115.9771,558.4377,120.6361,555.2294,111.06,557.5311" style="stroke:#181818;stroke-width:1.0;"/><text fill="#000000" font-family="sans-serif" font-size="13" lengthAdjust="spacing" textLength="103" x="142" y="560.1494">CRUD Operations</text></g><!--link Backend to ProxyServer--><g id="link_Backend_ProxyServer"><path codeLine="104" d="M424.7,640.0311 C446.86,659.6011 472.12,686.3711 486,716.1211 C536.86,825.1411 458.69,879.3511 516,985.1211 C556.32,1059.5211 603.82,1045.6411 663,1106.1211 C694.06,1137.8611 721.4354,1173.541 741.6854,1201.681 " fill="none" id="Backend-to-ProxyServer" style="stroke:#181818;stroke-width:1.0;"/><polygon fill="#181818" points="745.19,1206.5511,743.1798,1196.9096,742.2695,1202.4927,736.6864,1201.5824,745.19,1206.5511" style="stroke:#181818;stroke-width:1.0;"/><text fill="#000000" font-family="sans-serif" font-size="13" lengthAdjust="spacing" textLength="80" x="549.5" y="981.1494">API Requests</text></g><!--link ProxyServer to Backend--><g id="link_ProxyServer_Backend"><path codeLine="108" d="M714.79,1224.5911 C648.09,1204.1311 540.1,1166.8111 516,1133.1211 C461.95,1057.5511 523.62,801.0711 486,716.1211 C472.6,685.8711 451.5722,662.8444 429.1522,643.2944 " fill="none" id="ProxyServer-to-Backend" style="stroke:#181818;stroke-width:1.0;"/><polygon fill="#181818" points="424.63,639.3511,428.7844,648.2809,428.3985,642.6372,434.0422,642.2513,424.63,639.3511" style="stroke:#181818;stroke-width:1.0;"/><text fill="#000000" font-family="sans-serif" font-size="13" lengthAdjust="spacing" textLength="112" x="533.5" y="1129.1494">Forwards Requests</text></g><!--link Frontend to ProxyServer--><g id="link_Frontend_ProxyServer"><path codeLine="105" d="M459.75,1240.1211 C535.47,1240.1211 642.56,1240.1211 708.79,1240.1211 " fill="none" id="Frontend-to-ProxyServer" style="stroke:#181818;stroke-width:1.0;"/><polygon fill="#181818" points="714.79,1240.1211,705.79,1236.1211,709.79,1240.1211,705.79,1244.1211,714.79,1240.1211" style="stroke:#181818;stroke-width:1.0;"/><text fill="#000000" font-family="sans-serif" font-size="13" lengthAdjust="spacing" textLength="80" x="549.5" y="1236.1494">API Requests</text></g><!--link MobileApp to ProxyServer--><g id="link_MobileApp_ProxyServer"><path codeLine="106" d="M465.56,1446.5411 C481.47,1433.7811 498.6,1421.6711 516,1412.1211 C575.78,1379.2911 606.19,1405.8411 663,1368.1211 C699.71,1343.7511 726.9811,1307.8418 745.5911,1278.8218 " fill="none" id="MobileApp-to-ProxyServer" style="stroke:#181818;stroke-width:1.0;"/><polygon fill="#181818" points="748.83,1273.7711,740.6045,1279.1878,746.1309,1277.98,747.3388,1283.5064,748.83,1273.7711" style="stroke:#181818;stroke-width:1.0;"/><text fill="#000000" font-family="sans-serif" font-size="13" lengthAdjust="spacing" textLength="80" x="549.5" y="1364.1494">API Requests</text></g><!--link AdminPanel to ProxyServer--><g id="link_AdminPanel_ProxyServer"><path codeLine="107" d="M477,1689.7811 C480.3,1683.9711 483.33,1678.0711 486,1672.1211 C521.71,1592.5211 457.66,1542.9911 516,1478.1211 C561.2,1427.8611 610.07,1481.1611 663,1439.1211 C666.61,1436.2511 719.339,1335.0481 748.359,1279.0581 " fill="none" id="AdminPanel-to-ProxyServer" style="stroke:#181818;stroke-width:1.0;"/><polygon fill="#181818" points="751.12,1273.7311,743.4272,1279.8809,748.8192,1278.1703,750.5298,1283.5623,751.12,1273.7311" style="stroke:#181818;stroke-width:1.0;"/><text fill="#000000" font-family="sans-serif" font-size="13" lengthAdjust="spacing" textLength="80" x="549.5" y="1435.1494">API Requests</text></g><!--link Frontend to User--><g id="link_Frontend_User"><path codeLine="110" d="M459.64,1260.1811 C517.88,1277.0511 598.34,1304.3311 663,1341.1211 C693.54,1358.5011 719.6665,1380.7428 739.9565,1399.8928 " fill="none" id="Frontend-to-User" style="stroke:#181818;stroke-width:1.0;"/><polygon fill="#181818" points="744.32,1404.0111,740.5204,1394.9247,740.6838,1400.5792,735.0293,1400.7426,744.32,1404.0111" style="stroke:#181818;stroke-width:1.0;"/><text fill="#000000" font-family="sans-serif" font-size="13" lengthAdjust="spacing" textLength="134" x="522.5" y="1276.1494">Displays Web Interface</text></g><!--link MobileApp to User--><g id="link_MobileApp_User"><path codeLine="111" d="M465.58,1531.0011 C522.79,1530.3811 599.48,1524.3511 663,1501.1211 C692.7,1490.2611 717.3144,1472.8367 737.4344,1456.0367 " fill="none" id="MobileApp-to-User" style="stroke:#181818;stroke-width:1.0;"/><polygon fill="#181818" points="742.04,1452.1911,732.5679,1454.8891,738.202,1455.3958,737.6954,1461.0299,742.04,1452.1911" style="stroke:#181818;stroke-width:1.0;"/><text fill="#000000" font-family="sans-serif" font-size="13" lengthAdjust="spacing" textLength="145" x="517" y="1497.1494">Displays Mobile Interface</text></g><!--link AdminPanel to Admin--><g id="link_AdminPanel_Admin"><path codeLine="112" d="M484.56,1798.1211 C567.08,1798.1211 672.14,1798.1211 727.74,1798.1211 " fill="none" id="AdminPanel-to-Admin" style="stroke:#181818;stroke-width:1.0;"/><polygon fill="#181818" points="733.74,1798.1211,724.74,1794.1211,728.74,1798.1211,724.74,1802.1211,733.74,1798.1211" style="stroke:#181818;stroke-width:1.0;"/><text fill="#000000" font-family="sans-serif" font-size="13" lengthAdjust="spacing" textLength="144" x="517.5" y="1794.1494">Displays Admin Interface</text></g><!--link Backend to UserService--><g id="link_Backend_UserService"><path codeLine="116" d="M424.65,578.3811 C446.78,561.0511 472.05,536.9611 486,509.1211 C538.51,404.3411 454.72,347.0311 516,247.1211 C562.03,172.0811 650.3714,126.0242 709.7914,101.5742 " fill="none" id="Backend-to-UserService" style="stroke:#181818;stroke-width:1.0;"/><polygon fill="#181818" points="715.34,99.2911,705.495,99.0167,710.7161,101.1937,708.5391,106.4149,715.34,99.2911" style="stroke:#181818;stroke-width:1.0;"/><text fill="#000000" font-family="sans-serif" font-size="13" lengthAdjust="spacing" textLength="113" x="533" y="120.1494">Handles User Logic</text></g><!--link Backend to ProductService--><g id="link_Backend_ProductService"><path codeLine="117" d="M424.69,577.3711 C446.42,559.9711 471.28,536.1311 486,509.1211 C521.05,444.8311 472.52,406.0411 516,347.1211 C559.79,287.7711 601.09,310.2011 663,270.1211 C675.91,261.7611 698.8911,243.7296 722.6411,224.5596 " fill="none" id="Backend-to-ProductService" style="stroke:#181818;stroke-width:1.0;"/><polygon fill="#181818" points="727.31,220.7911,717.7944,223.3313,723.4193,223.9315,722.819,229.5564,727.31,220.7911" style="stroke:#181818;stroke-width:1.0;"/><text fill="#000000" font-family="sans-serif" font-size="13" lengthAdjust="spacing" textLength="131" x="524" y="266.1494">Handles Product Logic</text></g><!--link Backend to OrderService--><g id="link_Backend_OrderService"><path codeLine="118" d="M424.6,573.0911 C444.87,555.4611 468.46,532.7111 486,509.1211 C503.79,485.1911 495.23,470.5111 516,449.1211 C567.67,395.9111 599.49,408.4311 663,370.1211 C682.28,358.4911 697.9938,348.2428 715.8738,336.0428 " fill="none" id="Backend-to-OrderService" style="stroke:#181818;stroke-width:1.0;"/><polygon fill="#181818" points="720.83,332.6611,711.1412,334.4296,716.6998,335.4792,715.6502,341.0378,720.83,332.6611" style="stroke:#181818;stroke-width:1.0;"/><text fill="#000000" font-family="sans-serif" font-size="13" lengthAdjust="spacing" textLength="118" x="530.5" y="366.1494">Handles Order Logic</text></g><!--link Backend to PaymentService--><g id="link_Backend_PaymentService"><path codeLine="119" d="M424.84,586.5011 C492.06,554.1611 617.4035,493.8329 696.8235,455.6129 " fill="none" id="Backend-to-PaymentService" style="stroke:#181818;stroke-width:1.0;"/><polygon fill="#181818" points="702.23,453.0111,692.3857,453.3095,697.7246,455.1793,695.8548,460.5182,702.23,453.0111" style="stroke:#181818;stroke-width:1.0;"/><text fill="#000000" font-family="sans-serif" font-size="13" lengthAdjust="spacing" textLength="138" x="520.5" y="472.1494">Handles Payment Logic</text></g><!--link Backend to CategoryService--><g id="link_Backend_CategoryService"><path codeLine="120" d="M424.59,632.3411 C450.65,647.4211 484.86,666.6111 516,682.1211 C577.61,712.8211 644.1152,741.7245 695.4352,763.2045 " fill="none" id="Backend-to-CategoryService" style="stroke:#181818;stroke-width:1.0;"/><polygon fill="#181818" points="700.97,765.5211,694.2123,758.3564,696.3577,763.5906,691.1235,765.7361,700.97,765.5211" style="stroke:#181818;stroke-width:1.0;"/><text fill="#000000" font-family="sans-serif" font-size="13" lengthAdjust="spacing" textLength="138" x="520.5" y="678.1494">Handles Category Logic</text></g><!--link Backend to AuthService--><g id="link_Backend_AuthService"><path codeLine="121" d="M424.75,641.1011 C446.49,660.7111 471.35,687.1911 486,716.1211 C520.47,784.1711 470.27,824.0611 516,885.1211 C559.73,943.5111 601.11,919.5111 663,958.1211 C669.71,962.3111 694.715,981.5261 720.915,1001.9161 " fill="none" id="Backend-to-AuthService" style="stroke:#181818;stroke-width:1.0;"/><polygon fill="#181818" points="725.65,1005.6011,721.0041,996.9169,721.7041,1002.5302,716.0908,1003.2303,725.65,1005.6011" style="stroke:#181818;stroke-width:1.0;"/><text fill="#000000" font-family="sans-serif" font-size="13" lengthAdjust="spacing" textLength="134" x="522.5" y="881.1494">Handles Authentication</text></g><!--link Backend to AuthzService--><g id="link_Backend_AuthzService"><path codeLine="122" d="M424.84,614.5511 C490.58,625.9411 611.1981,646.8568 691.0181,660.6868 " fill="none" id="Backend-to-AuthzService" style="stroke:#181818;stroke-width:1.0;"/><polygon fill="#181818" points="696.93,661.7111,688.745,656.2333,692.0034,660.8575,687.3792,664.1159,696.93,661.7111" style="stroke:#181818;stroke-width:1.0;"/><text fill="#000000" font-family="sans-serif" font-size="13" lengthAdjust="spacing" textLength="127" x="526" y="627.1494">Handles Authorization</text></g><!--link Backend to CacheService--><g id="link_Backend_CacheService"><path codeLine="123" d="M424.84,602.3511 C494.12,594.6511 624.9368,580.0943 703.4368,571.3643 " fill="none" id="Backend-to-CacheService" style="stroke:#181818;stroke-width:1.0;"/><polygon fill="#181818" points="709.4,570.7011,700.013,567.7204,704.4306,571.2537,700.8973,575.6713,709.4,570.7011" style="stroke:#181818;stroke-width:1.0;"/><text fill="#000000" font-family="sans-serif" font-size="13" lengthAdjust="spacing" textLength="98" x="540.5" y="573.1494">Handles Caching</text></g><!--link Backend to LoggingService--><g id="link_Backend_LoggingService"><path codeLine="124" d="M424.53,646.0411 C444.67,665.8111 468.16,690.9311 486,716.1211 C503,740.1311 495.66,753.8711 516,775.1211 C567.88,829.3211 599.16,818.7011 663,858.1211 C682.07,869.8911 697.6383,880.1175 715.4783,892.2475 " fill="none" id="Backend-to-LoggingService" style="stroke:#181818;stroke-width:1.0;"/><polygon fill="#181818" points="720.44,895.6211,715.2465,887.2528,716.3052,892.8097,710.7483,893.8685,720.44,895.6211" style="stroke:#181818;stroke-width:1.0;"/><text fill="#000000" font-family="sans-serif" font-size="13" lengthAdjust="spacing" textLength="96" x="541.5" y="771.1494">Handles Logging</text></g><!--link UserService to Database--><g id="link_UserService_Database"><path codeLine="126" d="M715.29,79.4111 C621.3,80.2811 422.02,91.7711 276,167.1211 C201.15,205.7411 185.33,228.5011 141,300.1211 C110.9,348.7411 92.2804,403.9091 79.6304,453.2391 " fill="none" id="UserService-to-Database" style="stroke:#181818;stroke-width:1.0;"/><polygon fill="#181818" points="78.14,459.0511,84.2502,451.3268,79.382,454.2078,76.501,449.3396,78.14,459.0511" style="stroke:#181818;stroke-width:1.0;"/><text fill="#000000" font-family="sans-serif" font-size="13" lengthAdjust="spacing" textLength="159" x="301.5" y="97.1494">CRUD Operations on Users</text></g><!--link ProductService to Database--><g id="link_ProductService_Database"><path codeLine="127" d="M705.27,181.9211 C653.92,179.0011 579.82,177.7611 516,188.1211 C405.16,206.1211 375.72,215.4911 276,267.1211 C209.69,301.4511 187.78,308.9211 141,367.1211 C119.32,394.0911 104.4748,422.2373 91.6548,453.2073 " fill="none" id="ProductService-to-Database" style="stroke:#181818;stroke-width:1.0;"/><polygon fill="#181818" points="89.36,458.7511,96.4981,451.9653,91.2724,454.1313,89.1064,448.9055,89.36,458.7511" style="stroke:#181818;stroke-width:1.0;"/><text fill="#000000" font-family="sans-serif" font-size="13" lengthAdjust="spacing" textLength="177" x="292.5" y="190.1494">CRUD Operations on Products</text></g><!--link OrderService to Database--><g id="link_OrderService_Database"><path codeLine="128" d="M711.48,290.2311 C660.07,283.7411 582.54,277.7111 516,288.1211 C339.93,315.6711 276.27,314.0911 141,430.1211 C130.16,439.4211 123.8022,445.7795 114.7222,457.3595 " fill="none" id="OrderService-to-Database" style="stroke:#181818;stroke-width:1.0;"/><polygon fill="#181818" points="111.02,462.0811,119.7211,457.4669,114.1052,458.1464,113.4256,452.5306,111.02,462.0811" style="stroke:#181818;stroke-width:1.0;"/><text fill="#000000" font-family="sans-serif" font-size="13" lengthAdjust="spacing" textLength="164" x="299" y="290.1494">CRUD Operations on Orders</text></g><!--link PaymentService to Database--><g id="link_PaymentService_Database"><path codeLine="129" d="M702.25,397.0611 C689.39,393.3411 675.9,390.0911 663,388.1211 C598.42,378.2511 581.02,381.6811 516,388.1211 C345.23,405.0311 291.04,396.8411 141,480.1211 C130.73,485.8211 125.2551,489.2234 115.7351,496.6734 " fill="none" id="PaymentService-to-Database" style="stroke:#181818;stroke-width:1.0;"/><polygon fill="#181818" points="111.01,500.3711,120.5628,497.9746,114.9476,497.2897,115.6326,491.6744,111.01,500.3711" style="stroke:#181818;stroke-width:1.0;"/><text fill="#000000" font-family="sans-serif" font-size="13" lengthAdjust="spacing" textLength="184" x="289" y="388.1494">CRUD Operations on Payments</text></g><!--link CategoryService to Database--><g id="link_CategoryService_Database"><path codeLine="130" d="M700.92,813.8211 C688.42,816.8611 675.4,819.5011 663,821.1211 C490.79,843.5811 438.8,827.5911 276,767.1211 C212.26,743.4411 189.41,742.8711 141,695.1211 C124.3,678.6511 113.043,663.2241 101.413,642.6541 " fill="none" id="CategoryService-to-Database" style="stroke:#181818;stroke-width:1.0;"/><polygon fill="#181818" points="98.46,637.4311,99.4075,647.2343,100.9208,641.7836,106.3715,643.2969,98.46,637.4311" style="stroke:#181818;stroke-width:1.0;"/><text fill="#000000" font-family="sans-serif" font-size="13" lengthAdjust="spacing" textLength="187" x="287.5" y="763.1494">CRUD Operations on Categories</text></g><!--link AuthService to Database--><g id="link_AuthService_Database"><path codeLine="131" d="M692.92,1043.1311 C555.24,1045.7211 266.23,1028.4211 141,850.1211 C96.77,787.1511 77.5357,707.2612 68.4157,643.2012 " fill="none" id="AuthService-to-Database" style="stroke:#181818;stroke-width:1.0;"/><polygon fill="#181818" points="67.57,637.2611,64.8784,646.735,68.2747,642.2112,72.7986,645.6075,67.57,637.2611" style="stroke:#181818;stroke-width:1.0;"/><text fill="#000000" font-family="sans-serif" font-size="13" lengthAdjust="spacing" textLength="208" x="277" y="962.1494">CRUD Operations on Authentication</text></g><!--link AuthzService to Database--><g id="link_AuthzService_Database"><path codeLine="132" d="M704.66,707.6411 C691.24,713.2211 676.93,718.1611 663,721.1211 C494.38,756.9811 442.18,740.9711 276,695.1211 C212.35,677.5611 194.74,671.4811 141,633.1211 C130.71,625.7811 124.9622,621.1834 115.6322,612.1134 " fill="none" id="AuthzService-to-Database" style="stroke:#181818;stroke-width:1.0;"/><polygon fill="#181818" points="111.33,607.9311,114.9951,617.0726,114.9151,611.4163,120.5714,611.3364,111.33,607.9311" style="stroke:#181818;stroke-width:1.0;"/><text fill="#000000" font-family="sans-serif" font-size="13" lengthAdjust="spacing" textLength="201" x="280.5" y="691.1494">CRUD Operations on Authorization</text></g><!--link CacheService to Database--><g id="link_CacheService_Database"><path codeLine="133" d="M733.59,530.4011 C714.4,514.2311 689.21,496.5811 663,488.1211 C466.51,424.7211 222.5951,491.8629 116.7851,527.5629 " fill="none" id="CacheService-to-Database" style="stroke:#181818;stroke-width:1.0;"/><polygon fill="#181818" points="111.1,529.4811,120.9065,530.394,115.8376,527.8826,118.3489,522.8138,111.1,529.4811" style="stroke:#181818;stroke-width:1.0;"/><text fill="#000000" font-family="sans-serif" font-size="13" lengthAdjust="spacing" textLength="114" x="324" y="459.1494">Caching Operations</text></g><!--link LoggingService to Database--><g id="link_LoggingService_Database"><path codeLine="134" d="M704.3,931.2511 C653.04,931.9611 579.53,930.7211 516,921.1211 C406.62,904.5911 376.64,901.0511 276,855.1211 C210.4,825.1811 185.78,821.6411 141,765.1211 C111.6,728.0111 93.8085,684.8827 81.3385,642.9027 " fill="none" id="LoggingService-to-Database" style="stroke:#181818;stroke-width:1.0;"/><polygon fill="#181818" points="79.63,637.1511,78.3583,646.9175,81.0537,641.9441,86.0272,644.6395,79.63,637.1511" style="stroke:#181818;stroke-width:1.0;"/><text fill="#000000" font-family="sans-serif" font-size="13" lengthAdjust="spacing" textLength="112" x="325" y="851.1494">Logging Operations</text></g><!--SRC=[bLRRRjim37ttLsWVa1_8mu3CQPSMQPibAGhiPL1inX7gI9caj4c7_VjeoHTASUlknR39SooIXw9aXIs1_OHKxVUWCqYI4hQMMSMqA7QMvK93PeMIIV8bXwsGm9PNwNfo_tr-nRAI6vCadM7ABTzm0-nFmjX26LjeMFsOuyTen1uDQEDV5rhbnypMNmywRptk_TUDXNq3vUSzo0QQSWk5qW9CyfSk_8rdpo1pj-uz67kxmfVRfpK-r-S3F2plGdmLomhqYyXyhDKtgmqXiWwLWcjJFzubGD7EyCw_VMx1lxsf7rzdVwQ4njRFc1pjZgAhR_ozo7YbwVkSjvY4DN_xW9FoR0TXMDbEoA8VFLT5WKwAhqtz-6kjfEtaFNbvby0pMmdCHVagq9kkAlFa95JTBJEr1wne0K7NiRamjbhhqZC5YpyZZfHhIpzta3sh8pMvpa7-LfHqBQ_w35Ugj77s8AKxjK72v71mELsNHsj1uziK5_GjzY9oPvcjrmkIpYhJ0B8_eJvVdH9rkQG2GvCMDGQ9KKUOMks9zyp9DIdYd6GexIbgidmlv89BAFzNLCV4EfdTHd6TXzdUSOcbTZiergBNvPBizRJxAlPY6ksO6us-jgDdp58b9GvBWzCpQQmLWfPZp2QB6ypozn6db4dQpXx0TUqo02Hr7K1ILvZ7jTAlM5dJOSCuNT76R2hCeUHdmvvWmsxGhRSSTsuOQeprNWAF0lRg4e8tTFYWigqGMFpbuvGz742xAML271ttOpRZCY_1-DXmy8WibejE_0xVRhSBIZ3qEu9ll9uLmhbFLgYd_oKb7lqTfstKInAT_XqXF0Ck26_zZFO0YC8YSv_6vAP_08s6VWUk7Kb2LVfONORdaBzEH68DqzghHw3PCA- -f4JIVMAzvluIApXC9PSTgkGmCL8uKFLpx4xjGE6ON1_oPDj5AaU4vfJl2Fy0]--></g></svg>